<svg xmlns="http://www.w3.org/2000/svg" viewBox="0 0 229.93 229.74"><defs><style>.cls-1{fill:#fff;}.cls-2{fill:#8c032e;}.cls-3{fill:#a5002b;}.cls-4{fill:none;stroke:#b71825;stroke-miterlimit:10;stroke-width:5px;}.cls-5{fill:#b71825;}.cls-6{fill:#ee1f39;}</style></defs><title>LOGO</title><g id="BACKGROUND_1" data-name="BACKGROUND 1"><circle class="cls-1" cx="115.08" cy="114.84" r="114.67"/><path class="cls-2" d="M133.19,42.56a6,6,0,0,1,6,6V72.81a6,6,0,0,1-6,6h-36a6,6,0,0,1-6-6V48.56a6,6,0,0,1,6-6h36m0-6h-36a12,12,0,0,0-12,12V72.81a12,12,0,0,0,12,12h36a12,12,0,0,0,12-12V48.56a12,12,0,0,0-12-12Z"/><circle class="cls-3" cx="103.19" cy="52.56" r="3.88"/><circle class="cls-3" cx="127.44" cy="52.56" r="3.88"/><path class="cls-4" d="M100.31,60.31c0,11.33,29.88,11.33,29.88,0"/><rect class="cls-5" x="75.69" y="51.43" width="6.13" height="13.13"/><rect class="cls-5" x="148.35" y="51.43" width="6.13" height="13.13"/><rect class="cls-2" x="114.44" y="26.18" width="1.88" height="10.38"/><circle class="cls-2" cx="115.38" cy="22.57" r="3.91"/><path class="cls-2" d="M85.56,152.56c0-13.67,20.88-13.67,20.88,0"/><path class="cls-2" d="M124.44,152.56c0-13.67,20.87-13.67,20.87,0"/><path class="cls-6" d="M114.94,146.31a1.89,1.89,0,0,1-1.26-.48c-2.81-2.45-5.47-4.72-8-6.86-14.16-12.06-23.64-20-23.64-31.64,0-10.73,7.59-18.82,17.47-18.82,7.79,0,12.79,5.44,15.41,10.35,2.62-4.91,7.63-10.35,15.42-10.35,9.88,0,17.46,8.09,17.46,18.82,0,11.61-9.48,19.58-23.63,31.64-2.51,2.14-5.17,4.41-8,6.86A1.9,1.9,0,0,1,114.94,146.31Z"/><path class="cls-5" d="M116.21,145.83c2.81-2.45,5.47-4.72,8-6.86,14.15-12.06,23.63-20,23.63-31.64,0-10.73-7.58-18.82-17.46-18.82-7.79,0-12.8,5.44-15.42,10.35v47.45A1.9,1.9,0,0,0,116.21,145.83Z"/><path class="cls-5" d="M97.65,173.58a.59.59,0,0,1-.41.61,3,3,0,0,1-1.24.25,2,2,0,0,1-1.55-.56,2.26,2.26,0,0,1-.52-1.58V167H93.1a.72.72,0,0,1-.71-.71.67.67,0,0,1,.21-.5.7.7,0,0,1,.5-.21h.83v-1.65a.82.82,0,0,1,.81-.81.8.8,0,0,1,.57.24.75.75,0,0,1,.24.57v1.65h1.13a.69.69,0,0,1,.5.21.65.65,0,0,1,.22.5.7.7,0,0,1-.21.5.66.66,0,0,1-.51.21H95.55v5a1.31,1.31,0,0,0,.21.78.75.75,0,0,0,.63.28,1.63,1.63,0,0,0,.35-.05l.23-.06a.68.68,0,0,1,.49.19A.66.66,0,0,1,97.65,173.58Z"/><path class="cls-5" d="M99.17,163.51a1,1,0,0,1-.31-.73,1,1,0,0,1,.3-.73,1.06,1.06,0,0,1,1.48,0,1,1,0,0,1,.3.73,1,1,0,0,1-1,1A1,1,0,0,1,99.17,163.51Zm-.06,10v-7.25a.8.8,0,0,1,.81-.81.84.84,0,0,1,.81.81v7.25a.82.82,0,0,1-.83.8.75.75,0,0,1-.56-.23A.79.79,0,0,1,99.11,173.51Z"/><path class="cls-5" d="M110.77,168.13v5.38a.76.76,0,0,1-.24.57.8.8,0,0,1-.59.23.73.73,0,0,1-.55-.23.76.76,0,0,1-.24-.57v-4.84a2,2,0,0,0-.45-1.45,1.93,1.93,0,0,0-1.4-.45,2.79,2.79,0,0,0-1.35.36,3.36,3.36,0,0,0-1,.89v5.49a.8.8,0,0,1-.81.8.75.75,0,0,1-.57-.23.76.76,0,0,1-.24-.57v-7.25a.76.76,0,0,1,.24-.57.74.74,0,0,1,.56-.24.8.8,0,0,1,.58.24.76.76,0,0,1,.24.57v.49a4.09,4.09,0,0,1,1.36-1,3.9,3.9,0,0,1,1.72-.4A2.47,2.47,0,0,1,110.77,168.13Z"/><path class="cls-5" d="M121.14,163v10.55a.79.79,0,0,1-.23.57.78.78,0,0,1-.58.23.76.76,0,0,1-.56-.23.74.74,0,0,1-.25-.57V173a3.31,3.31,0,0,1-2.84,1.46,3.55,3.55,0,0,1-2.8-1.23,5.59,5.59,0,0,1,0-6.62,3.5,3.5,0,0,1,2.79-1.26,3.35,3.35,0,0,1,2.84,1.47V163a.76.76,0,0,1,.25-.58.8.8,0,0,1,.56-.23.79.79,0,0,1,.81.81Zm-1.62,8.78V168a2.59,2.59,0,0,0-1-.9,2.87,2.87,0,0,0-1.39-.37,2.33,2.33,0,0,0-1.9.86,3.89,3.89,0,0,0,0,4.51,2.33,2.33,0,0,0,1.9.86,3,3,0,0,0,1.4-.36A2.55,2.55,0,0,0,119.52,171.74Z"/><path class="cls-5" d="M127.54,165.33a4,4,0,0,1,3,1.27,4.29,4.29,0,0,1,1.18,3,.7.7,0,0,1-.25.57,1.06,1.06,0,0,1-.7.21H124.9a2.91,2.91,0,0,0,.89,1.93,2.87,2.87,0,0,0,2,.76,3.6,3.6,0,0,0,2.16-.7.6.6,0,0,1,.36-.09.62.62,0,0,1,.46.19.64.64,0,0,1,.19.46.6.6,0,0,1-.29.54,5,5,0,0,1-3,.93,4.35,4.35,0,0,1-3.22-1.28,4.85,4.85,0,0,1,0-6.51A4,4,0,0,1,127.54,165.33Zm-2.66,3.92h5.3a2.77,2.77,0,0,0-.72-1.81,2.72,2.72,0,0,0-3.8,0A3.06,3.06,0,0,0,124.88,169.25Z"/><path class="cls-5" d="M138.36,166.17a.72.72,0,0,1-.22.51,1.08,1.08,0,0,1-.63.27,3.11,3.11,0,0,0-1.2.41,2.28,2.28,0,0,0-.9.83v5.32a.76.76,0,0,1-.24.57.78.78,0,0,1-.57.23.74.74,0,0,1-.57-.23.76.76,0,0,1-.24-.57v-7.25a.76.76,0,0,1,.24-.57.74.74,0,0,1,.55-.24.82.82,0,0,1,.59.24.76.76,0,0,1,.24.57v.61a3.66,3.66,0,0,1,1.8-1.38,2.57,2.57,0,0,1,.46-.09.61.61,0,0,1,.51.22A.83.83,0,0,1,138.36,166.17Z"/><path class="cls-2" d="M90.74,202.44H86.89V189.9l-6.76,11.91a1.72,1.72,0,0,1-.7.69,2.12,2.12,0,0,1-1,.23,2,2,0,0,1-.93-.23,1.76,1.76,0,0,1-.69-.69L70.06,189.9v12.54H66.24V183a1.87,1.87,0,0,1,.39-1.17,1.81,1.81,0,0,1,1-.69,1.86,1.86,0,0,1,.62,0,1.74,1.74,0,0,1,.59.13,1.53,1.53,0,0,1,.52.31,1.81,1.81,0,0,1,.4.47l8.69,15.1L87.16,182a1.85,1.85,0,0,1,.93-.79,1.94,1.94,0,0,1,1.24-.07,1.82,1.82,0,0,1,1,.69,1.88,1.88,0,0,1,.4,1.17Z"/><path class="cls-2" d="M115.82,202.44H112v-5.17H98.59v5.17H94.77V191.91a11.27,11.27,0,0,1,.79-4.24,10,10,0,0,1,2.21-3.33,10,10,0,0,1,3.33-2.17,11.06,11.06,0,0,1,4.2-.78h8.59a1.93,1.93,0,0,1,1.93,1.92Zm-17.23-9H112v-8.25h-6.7c-.12,0-.37,0-.75,0a6.92,6.92,0,0,0-1.3.26,7.35,7.35,0,0,0-1.57.63,5.49,5.49,0,0,0-1.51,1.17A5.83,5.83,0,0,0,99,189.19a7.34,7.34,0,0,0-.45,2.72Z"/><path class="cls-2" d="M141.28,188.47a8,8,0,0,1-.32,2.33,6.62,6.62,0,0,1-.88,1.81,5.8,5.8,0,0,1-1.27,1.34,7.12,7.12,0,0,1-1.5.92,7.31,7.31,0,0,1-1.58.52,7.54,7.54,0,0,1-1.51.16l8,6.89h-5.9l-7.95-6.89h-2.75v-3.81h8.63a4.41,4.41,0,0,0,1.31-.3,3.14,3.14,0,0,0,1-.66,2.76,2.76,0,0,0,.67-1,3.42,3.42,0,0,0,.23-1.32v-2.41a1.06,1.06,0,0,0-.08-.49.52.52,0,0,0-.2-.25.52.52,0,0,0-.27-.1H124.07v17.23h-3.82V183.31a2,2,0,0,1,.55-1.36,1.73,1.73,0,0,1,.61-.41,1.91,1.91,0,0,1,.76-.15h14.49a4.65,4.65,0,0,1,2.15.46,4.52,4.52,0,0,1,1.44,1.16,4.66,4.66,0,0,1,.79,1.51,5.32,5.32,0,0,1,.24,1.51Z"/><path class="cls-2" d="M165.33,196.24a6.8,6.8,0,0,1-.28,2,6.16,6.16,0,0,1-.76,1.59,4.92,4.92,0,0,1-1.1,1.17,6.61,6.61,0,0,1-1.3.8,7.17,7.17,0,0,1-1.38.45,6.2,6.2,0,0,1-1.31.15H144.48v-3.82H159.2a2.22,2.22,0,0,0,1.71-.65,2.42,2.42,0,0,0,.61-1.73,3,3,0,0,0-.16-1,2.21,2.21,0,0,0-.47-.76,2.11,2.11,0,0,0-.73-.5,2.69,2.69,0,0,0-1-.17h-8.78a6.78,6.78,0,0,1-2-.33,5.87,5.87,0,0,1-3.52-3,6.39,6.39,0,0,1-.61-2.91,6.3,6.3,0,0,1,.61-2.89,6.06,6.06,0,0,1,1.53-1.93,5.92,5.92,0,0,1,2-1.07,6.78,6.78,0,0,1,2-.33h13v3.82h-13a2.18,2.18,0,0,0-1.69.66,2.45,2.45,0,0,0-.61,1.74,2.38,2.38,0,0,0,.61,1.74,2.2,2.2,0,0,0,1.69.64h8.81a7.14,7.14,0,0,1,1.31.17,6.79,6.79,0,0,1,2.67,1.29,5.6,5.6,0,0,1,1.09,1.18,5.86,5.86,0,0,1,.76,1.59A7,7,0,0,1,165.33,196.24Z"/></g></svg>