<svg xmlns="http://www.w3.org/2000/svg" viewBox="0 0 208.17 303.12"><defs><style>.cls-1{fill:#0d1012;}.cls-2{fill:#b71825;}.cls-3{fill:#8c032e;}.cls-4{fill:#080504;}.cls-5{fill:#010101;}</style></defs><title>lonely_robot</title><g id="BACKGROUND_1" data-name="BACKGROUND 1"><path d="M29.32,295.13c-.05-6-.27-12,3.9-16.95a3.55,3.55,0,0,0,.6-3.2,211.47,211.47,0,0,1-2.53-36.32c.08-8.4-2.64-16.44-2.26-24.79.07-1.61-1.15-2.24-2-3.22-2.74-3.1-6.29-5.22-9.08-8.39a69,69,0,0,1-17.38-45c-.34-15.43,6.22-25.19,22.25-30.65,3-1,3.81-2.15,4.06-5,1.25-13.88,2.28-27.8,4.18-41.59,1.53-11.16,3.57-22.29,7.22-33C41.2,38.37,47.45,32.2,53.8,26.21,59.35,21,66.33,17.58,72.28,12.73,80.19,6.29,90.8,6.48,99.94,3c12-4.63,24.1-2.51,35.62.76,8,2.27,15.8,6.55,21.42,13.45,5.51,3.21,8.59,8.35,11.09,14,3.3,8.06,6.73,16.06,9.82,24.19a22.15,22.15,0,0,1,1,7.38,161.77,161.77,0,0,0,3,27.22c1.66,8.75,1.26,17.78,4.5,26.39,1.42,3.81-.81,9.17,1,12.6s7.47,3.47,10.21,7.06a46.34,46.34,0,0,1,9.24,21.54c2.24,15.24-2.6,23.94-16.25,29.58-3.39,1.4-4.49,3.6-4.54,7.27-.17,11.14,1.89,22.2,1,33.35-.14,1.94.21,2.62,2.51,1.91,3.68-1.14,7.54-1.7,11.32-2.5,5.22,5.34,5.22,5.34.5,9.14,1,1.15,3.58.41,3.7,2.49.1,1.87-1.07,3.4-2.17,4.89-.83,1.12-4.24,2-.53,3.84.42.21.09,1.23-.38,1.77,2.33,1.94,2,4,.66,6.45-1.83,3.26-3.56,6.6-3.83,10.46-1.14,1.45-.83,3.2-1,4.85-4.36,3.27-7.65,7.48-10.73,11.9-.26.38-.51,1.05-.82,1.09-10,1.14-18.17,8.28-28.64,8.53-9.71.24-19.41,1.63-29.07,2.89-4.54.59-8.78,2.55-13.44,3.23-8.31,1.2-16.43,1.55-24.66-.32-2.23-.51-5.23-1.29-5.7,2.66-.09.73-.53,1.08-1.37,1-7.19-.58-14.43-.78-21.42-2.91-.92-.48-1.7-1-1-2.24,1.68-1.5,3.69-1.2,5.67-1,4.13.49,7.08-1.4,8.85-4.88,2.15-4.23,3.67-8.5-.52-12.72-8.07-8.16-21.63-11.88-33.09-2.06a10.52,10.52,0,0,0-6.78,10.3c-1.19,3-1.67,6.24-3.77,8.82A1.55,1.55,0,0,1,29.32,295.13Z"/><path class="cls-1" d="M29.32,295.13l1.71,0c9.22-.2,18.44-.53,27.64.52A2.94,2.94,0,0,1,61,297.32l1,1.76c-6.88.33-13.78,1.07-20.64.85C37.05,299.79,32.14,299.72,29.32,295.13Z"/><path class="cls-2" d="M134.42,130.19c-5.68-.32-10,.95-14.37,1.78-11,2.08-22.18,1-33.31,1-10.13,0-20.17-1.06-30.26-1.56-4.15-.21-8.28-.73-12.41-1.2-7.25-.82-7.36-1.13-8.13-8.26-.37-3.34-3-6.08-2.77-9.75,1.16-19.25,2.43-38.56,8-57.08a47.14,47.14,0,0,1,16-23c5.32-4.28,10.49-8.75,15.92-12.87A40.3,40.3,0,0,1,88.7,11.87c7-1.56,13.85-3.56,20.83-5.07,12.07-2.61,22.66,1,32.91,7.42a66,66,0,0,1,18.31,16.26c3.62,4.83,6.9,10.16,8.27,15.75,1.81,7.33,4,14.76,4.14,22.44.14,7.49,1.83,14.82,2.83,22.16.91,6.6-.91,11.21-4.56,15.8-1.11,1.39-2.32,2.31-.27,3.71,1,.71.08,1.21-.26,1.45-5.62,4-10,9.18-14.32,14.46a5.52,5.52,0,0,1-3.54,1.62C146.42,128.33,140.05,131.07,134.42,130.19Z"/><path class="cls-2" d="M158.91,173c-5.58,1.18-11.21.11-16.81.39-2.07.1-2.58-1.2-3-2.65-1-3.58-3.31-6.4-5.08-9.55-4.48-8-12.32-4.92-16.87.89-2.78,3.55-4.25,7.72-6.16,11.66-1.22,2.53-3,3-5.39,3.39-8.65,1.59-14.5-1.69-17.3-9.88-1.43-4.2-4.95-6.56-7.44-9.8C79,155,73,156.61,70,160.14c-7.26,8.54-11.27,18.66-13.82,29.41-.3,1.29-1.15,3.37,1,3.82,2.69.57,1.35-2,1.76-3.09,1.48-3.88,4.49-1.51,6.81-1.89,2.87-.19,4.7,1,5.23,3.92.22,1.21,2.73,3.48-1.14,2.88-3.47-.55-7,0-10.32-.29a34.38,34.38,0,0,1-24.57-14,3.17,3.17,0,0,1-.63-1.81c.27-13.58.65-27.16.83-40.74,0-2.77,1-3.39,3.57-3.1,3.62.42,7.26.47,10.69,2a19.31,19.31,0,0,0,8.83,1.31c9.12-.39,18.06,2.36,27.31.87,4.41-.71,9.16,1.35,13.83.84,11.49-1.25,23-2.67,34.45-3.84,10.76-1.09,21.55-1.88,32.08-4.51,4-.64,3.42,2.28,3.21,4.43-.48,4.79-1.83,9.44-2.94,14.12-1.4,6-3.31,11.83-4.49,17.86A7,7,0,0,1,158.91,173Z"/><path class="cls-3" d="M158,284.94c-2.59.57-5.18,1.16-7.78,1.7-4.79,1-5.18.27-5.29-4.63-.37-17.35,1-34.61,1.9-51.91.48-8.95,2.2-17.87,1.1-26.88.2-2.21,1.27-4.15,1.87-6.24,6.91-1.18,13.06-5,20.06-5.87,1.56-.85,2.5-.05,3.23,1.23a7,7,0,0,1,.83,3.37c.37,23.22,3,46.56-3,69.51C168.93,273.22,166.09,280.82,158,284.94Z"/><path class="cls-2" d="M78.76,275.79c-1.9-4.55-5.09-7.46-10.17-7.76-2-.12-1.2-1.71-1.16-2.67q.84-20.58,1.82-41.17c.13-3,1-4.19,4.7-4.42,7.17-.45,14.28.42,21.4,0,3.16-.21,3.91.69,3.65,3.88C97.83,238,93.93,252,92.87,266.38c-.18,2.45-1.64,2.49-3.35,2.65C85,269.46,82.2,272.44,78.76,275.79Z"/><path class="cls-2" d="M61,297.32c-5.1-.33-10.47-1.29-15.23-.67-4.09.53-7.8-.1-11.68-.16a3.94,3.94,0,0,1-3.1-1.32,21.44,21.44,0,0,1,2.73-9.23C36,282.11,37.87,278,41,274.77c12.94-11.07,27.43-6.54,36.82,3.65,3.65,4,1.55,8.65-.55,12.9-2.63,5.3-5.87,6.83-11.74,5.74A18.25,18.25,0,0,0,61,297.32Z"/><path class="cls-2" d="M119.88,272.27c-.63-.53-1.21-1.44-1.9-1.54-7.71-1.11-7-7-7-12.33-.06-13.86,2-27.44,5.17-40.9a2.51,2.51,0,0,1,2.16-2.27c4.21-.93,8.4-2,12.6-3,1.7-.41,2.13.19,2.38,2,1.77,12.38,1.77,24.63-1.69,36.78a79.7,79.7,0,0,0-1.52,9.17c-2.51,2.62-4.87,5.29-6,8.91C123.51,270.86,122.59,273,119.88,272.27Z"/><path class="cls-2" d="M103.05,271.12a15.47,15.47,0,0,0,3.35.36c7-.84,11.67,1.49,14.73,7.54,1,6.85-4.32,15-11.14,16.92-7.92,1.47-15.71.57-23.48-1.18-1-.22-1.66-.5-1.5-1.41.84-4.79-2.86-8.61-2.77-13.22a18.9,18.9,0,0,1,4.78-6c2.32-1.76,6.1-1.32,7.42-4.74,0,0,1.63.55,2.49.84C99,270.5,101.29,268.84,103.05,271.12Z"/><path class="cls-3" d="M158,284.94c8.34-8.82,11.68-19.63,13.08-31.44,1.19-10.05,2.64-20.1,1.78-30.17-.81-9.61-.82-19.2-.88-28.8,0-1.61-.25-3-2.12-3.42,9.2-3,9.08-3,9.37,6,.44,13.76.87,27.52,1.68,41.26.41,7-1.13,13.87-1,20.86.1,3.93-3.62,6.42-5.55,9.44-1.62,2.53-3.83,5-5,7.75C167.3,281.76,163.7,284.61,158,284.94Z"/><path class="cls-2" d="M52.8,257.1c.71,7.56-3.69,11.13-10.18,13.06-.47.14-.94.24-1.43.37-.91-17.64-4.12-35.07-3.52-54.22,5.21,5,10.31,2.53,15.12,2.94a2.52,2.52,0,0,1,.73,2.24c.07,8.87-.25,17.74.94,26.58A15.57,15.57,0,0,1,52.8,257.1Z"/><path class="cls-3" d="M158.91,173c1.71-12.49,6.39-24.3,8.38-36.72.29-1.78,1.4-3.63-1.43-4.29,1.86-1.29,4-1.34,6.17-1.67,3.05,1.19,3.62,4,3.45,6.59-.59,9.6-.67,19.27-3.33,28.64A13.53,13.53,0,0,1,170,170C166.83,173,162.77,172.62,158.91,173Z"/><path class="cls-2" d="M12.07,184.1c-2-6.76-2.83-13.83-6.2-21.42,6,2.78,11.19,3.49,16.41,4,1.95.17,2.12,1.38,2.27,2.61a23.25,23.25,0,0,0,2.51,8.51c1.06,2,1,3.27-1.82,3.62-2.1.27-4.11,1.26-6.16,1.93C17,185.39,14.49,184.58,12.07,184.1Z"/><path class="cls-3" d="M170,170c.91-10,3.14-19.9,3.53-30a25.62,25.62,0,0,0-1.47-9.61c5.58-2.37,5.53-2.37,6.06,3.31a23.52,23.52,0,0,0,1.08,5.85c3,8.35-1,16.67.06,25,.12.94-.19,1.77-1.16,1.87C175,166.65,172.9,169.28,170,170Z"/><path class="cls-2" d="M24.08,153.07c.86,3.44-1,6.68-.7,10.09.09,1.11-.65,2-1.82,1.75-5.41-1.3-11.62-.47-15.6-5.68,1.17-6.36,2.6-12.63,6.52-18,.6-.32,1.46-.59,1.76,0C16.65,145.92,21,149,24.08,153.07Z"/><path class="cls-2" d="M42.78,209c-.66.11-1.53.53-1.94.26-5.83-3.84-12.66-6-18.82-10.9a96.64,96.64,0,0,0,14-4.87c2.79-1.25,6.21,2.07,8.78,4.38,1.81,1.62,3.49,3.41,6.27,2.29C51.41,204.52,48.47,207.66,42.78,209Z"/><path class="cls-3" d="M188,164.17c-.31-2.12-.67-4.23-.89-6.35-.29-2.68-.41-5.23,2.38-7s1.85-5.48,4.12-7.66c1.57-1.51,2.43-2.2,3.49.28,1.64,3.83,4.5,7.73-1,10.89-.47,1.05-1.12,1.9-1.9,2a20.1,20.1,0,0,1,3-1c1.35-.2,2.08-2.76,3.65-1.37,1.22,1.08-.81,3-.71,3.21,1.33,2.27-2.33,3.51-.87,6.27,1,1.84-3,3.37-4.2,5.58-.66,1.17-3.18-.31-4.3-2a19.41,19.41,0,0,0-2.72-2.8Z"/><path class="cls-2" d="M53,201.18c5.22.18,10.13,3,15.56,1.78,1.33-.29,2.38.27,1.73,2.34-2,6.21-7.69,9.71-14.07,8.1-3.22-.81-6.68.43-9.76-1.24-1-.53-2.77-.17-2.53-2.15C47,207.05,49.84,204,53,201.18Z"/><path class="cls-2" d="M82.55,215.54c2.28-4.58,4.19-7.87,4.57-11.74,0-.55.54-1.49.9-1.52,4.92-.48,9.85-.85,14.78-1.17.71-.05,1,.54,1.12,1.31.5,4.23-3.25,9.27-7.47,10.12S87.87,214.39,82.55,215.54Z"/><path class="cls-2" d="M143.07,180.11c-.55,2.3-.88,4.09-1.42,5.82-.62,2,1.68,5.11-.76,5.82-4.13,1.2-8.79,1.92-12.93.4-2.13-.79-2-3.82-1.41-6.27.67-2.91,1.35-5.65,5-5.75S138.85,180.11,143.07,180.11Z"/><path class="cls-2" d="M21.15,184.26c5-2.15,8.2-1.08,11.31,3.85,2.33,3.68,1.4,4.89-1.69,6-2.64.94-5.5,2.09-8.17,1.9-4.36-.3-5.31-5.14-8.12-7.63-.79-.69-1-2.08-1.4-3.15C15.53,182.84,18.55,185.3,21.15,184.26Z"/><path class="cls-2" d="M65.54,214.73c2.68-3.45,5.63-6.14,6.9-10.07.57-1.73,10.39-3.58,11.83-2.54.83.6.66,1.45.72,2.23a9,9,0,0,1-8.42,9.49C73,214.08,69.69,216.28,65.54,214.73Z"/><path class="cls-2" d="M128.76,263.14a11.1,11.1,0,0,1,1.75,9.27c-.94,4.28.85,8.53.29,12.82-.21,1.68.56,4-2.33,4-2.41,0-3.07-2-3.13-3.74-.12-3.8-1.73-7-3.38-10.26C122.56,270.27,123.56,265.52,128.76,263.14Z"/><path class="cls-2" d="M113,180.59c-1.11,3.31-2.3,6.61-1.17,10.15.63,2-.24,2.76-2.19,2.7-1.17,0-2.34.15-3.49,0-2.77-.34-6.8,1.55-6.74-3.93s2.77-9.34,7.08-9.42C108.54,180.07,110.7,179.55,113,180.59Z"/><path class="cls-2" d="M125.88,180.49c-.39,3.84-2.38,7.48-.71,11.32a1.51,1.51,0,0,1-.38,1.25c-.67.75-10.23.47-10.59-.38a11.91,11.91,0,0,1-.36-9.23c1.09-2.86,3.15-3.59,5.93-3.31C121.75,180.34,123.75,180.38,125.88,180.49Z"/><path class="cls-2" d="M117.83,209.16c-1.55.31-1.41-1.19-.77-2.76a31.11,31.11,0,0,0,1.78-6.7c.68-4,4.32-2.73,6.74-3.32,2-.49,4.43-.62,4.69,2.69a11.56,11.56,0,0,0,1.12,3.8c1.21,2.57.18,3.62-2.32,4.06-3.1.55-6.18,1.24-9.26,1.87Z"/><path class="cls-2" d="M73.05,165.09c1.27-2.06,1.57-5.11,5-4.94,3.17.16,5.16,2.07,6.57,4.64,2,3.59,3.77,7.25,5.68,11-8.34,1.52-5.13-5.27-6.53-8.87-1.46.82-1,2-1,3s.06,2,0,3c-.4,3.69-1.79,1.3-2.91.44-3.47-1.17-4.64-4.7-7.08-6.92A1.53,1.53,0,0,1,73.05,165.09Z"/><path class="cls-2" d="M152,178.86c1.07.8,3.68-2.06,4,1.34.74,8.88-.88,10.71-8.38,11.18-3.51.22-4.38-1.3-4.38-4.22C143.22,181.73,146,179,152,178.86Z"/><path class="cls-2" d="M109.61,239.76c.6,1.47-.45,3.05-.42,4.57.09,5-2.87,4.45-6.13,4-3.78-.57-4.35-3-3.78-6.18.11-.65.32-1.29.41-2,1-6.79.93-6.48,7.74-5.28C111.22,235.55,109.58,237.69,109.61,239.76Z"/><path class="cls-2" d="M63.08,243.07c2.82,1.36,2.28,3.94,1.68,6-.78,2.76-3,.55-4.58.72s-2.92-.12-4.7,1.67c5.07,0,10.2-.55,9.36,6.4-3.71,1.78-6.57-.91-9.76-1.87l-.23-1.78a21,21,0,0,1,.1-13.09l1.82-.77C59.17,240.57,61.86,240.11,63.08,243.07Z"/><path class="cls-2" d="M23.87,131c1.54-1.38,2.46-.95,2.32,1-.44,6.37,1.64,12.75-.17,19.1-4.56,1.83-5.87-2.56-8.42-4.48a8,8,0,0,1-3-5.07C16.68,137.19,21.57,135.24,23.87,131Z"/><path class="cls-3" d="M169,175.85a24.59,24.59,0,0,1-.05,4.25c-.39,2.17,2.71,4.77.9,5.78-2.74,1.54-6.32,1.74-9.59,2.11-2.47.28-2.93-1.9-3-3.73-.08-2.93.51-5.79,3.82-6.78C163.45,176.77,165.94,176.46,169,175.85Z"/><path class="cls-2" d="M103.78,210.94c.43-3.43,2.16-6.17,2.25-9.4,0-1.77,7.14-4.42,9.43-3.39,3.09,1.37,1.26,3.87.64,5.8C114.19,209.91,114.1,209.89,103.78,210.94Z"/><path class="cls-2" d="M66.94,187.38a1.45,1.45,0,0,1-.43-.22c-1.62-1.62-5.79.43-5.55-2.08.32-3.29.36-7.46,4.08-9.63,7.07-.63,11,3.39,9.5,9.75C73.13,191.3,71.73,191.69,66.94,187.38Z"/><path class="cls-2" d="M133,284.18c-.07-2,.19-4.06-.25-6-1.29-5.54,1.49-7.73,6.38-8.93,2.77-.68,3.59-.37,4,2.7.87,7.11-4.21,9.45-8.92,12.27C133.74,284.84,133.35,284.82,133,284.18Z"/><path class="cls-2" d="M98.05,269.14c-2.79-3-.46-6.6-1-9.88-.24-1.51,1.2-1.08,2.13-.95,1.63.23,3.25.53,4.89.71,2.41.26,4.81.55,4.28,3.91-.45,2.87,1.46,7.2-4.13,7.1C102.19,269.58,99.87,271.07,98.05,269.14Z"/><path class="cls-3" d="M174,185.13c-2.78-.22-3-3-3.17-5.65-.23-4.27,2-6.45,7-6,4,.36,3.73,4.91,5.65,7.37C184.33,181.88,178.29,185,174,185.13Z"/><path class="cls-2" d="M137,222c-.88-4.74-1.95-9.32,1.7-13.6a8.17,8.17,0,0,1,4.63-2.53c2-.53,3.25-.19,1.79,2a3.14,3.14,0,0,0-.65,2.73C146.32,216.94,143.83,220.62,137,222Z"/><path class="cls-3" d="M188,164.2c-.22,2,1.13,3.34,2,4.93.73,1.37,3.63,1.05,2.79,3.37-1,2.77-2.3,5.43-3.56,8.1a1.51,1.51,0,0,1-1.3.5c-3.48-.65-4.15-3.93-5.72-6.33-1.12-1.7-1.27-3.36,1-4.51,2.5-1.28,3.24-4,4.83-6.09Z"/><path class="cls-2" d="M143.09,260.58c-.31,5.67-2.76,8.07-7.94,8.31-.81,0-1.88.27-2-.82-.17-2.26-1.34-4.65.13-6.77a18,18,0,0,1,3.52-3.5c1.43-1.15,3.12-2.21,5-1.48C144.22,257.25,142.83,259.45,143.09,260.58Z"/><path class="cls-2" d="M73.05,165.09v1.17c2.88,2.42,5.13,5.24,5.89,9,0,1.38.3,2.82-.92,3.91-1.56,2.54-2.83.83-4.25-.22-2.57-1.91-5.1-4-8.68-3.41-1.74-.9-.25-1.67.1-2.49,3.17-2.43,3.49-7.06,7.07-9.17Z"/><path class="cls-2" d="M144.64,221.19c-.11,2.08-.67,3.86-.2,5.3,2.09,6.44-1.88,8-6.8,9C135.81,224.15,137.72,222.91,144.64,221.19Z"/><path class="cls-2" d="M111.23,227.32c-1.06,2.25.86,6.75-4,5.66-2.34-.53-7.31,1.68-6.34-4.22.36-2.22-.52-6.13,3.26-4.95C106.33,224.5,111.45,221.29,111.23,227.32Z"/><path class="cls-2" d="M65.17,262.18c-.69,1.74,1,5.06-2.32,5-2.9-.09-6.86.43-8.38-2.21-.82-1.42-1.19-5.64,2.49-6.91C61.75,256.75,64.11,258,65.17,262.18Z"/><path class="cls-2" d="M99.34,181.71c-.4,2.4-1.7,4.59-1.56,7.15.07,1.38,1,3.85-1.73,3.7-2.18-.11-4.59-.4-5.4-3.35C88.94,183,91.89,180.31,99.34,181.71Z"/><path class="cls-2" d="M134.81,248.29c.91-5.37.46-10.53,6.76-12.36,2.76-.8,3.08,0,3,2.37C144.44,243.92,142.54,246,134.81,248.29Z"/><path class="cls-2" d="M98.59,248.77c2,.61,4,1.54,6.19,1.43,2.75-.14,4.28.81,3.9,4.11-.36,3.09-1.43,3.55-4.41,3C97.45,256.15,97.41,256.37,98.59,248.77Z"/><path class="cls-2" d="M64,233.13a8.73,8.73,0,0,1,.16,8.92c-2.28-.47-4.58-.87-6.23-2.74-3.83-2.23-3.84-4.7,0-7.32C60.4,230.1,62.36,230.89,64,233.13Z"/><path class="cls-2" d="M56.71,231c-1.33-2.24-2.71-5.17-.41-6.82,2.88-2.07,6.64-.32,9.18,1.24s1,4.53-.39,6.76C62.27,231.93,59.59,230.71,56.71,231Z"/><path class="cls-2" d="M119.13,170c-1.64-5.08.21-7.68,7.66-10.76.48,5.55-.9,10.74-3.06,15.77l-.33-.07h-.33C119.84,174.86,119.42,172.49,119.13,170Z"/><path class="cls-4" d="M65.1,175.58c3.46-3.2,5.49.6,8,1.74,1.63.74,2.49,3.3,5,1.89L79,181.3a43,43,0,0,1-4.15,8.91l-3.89,2.1-5.23-3.92,1.24-1,4.53,2.06c.11-.13.37-.3.45-.54,2.92-9.44,2.87-9.52-6.88-13.45Z"/><path class="cls-2" d="M133.35,258.43c-.8-3,0-6.66.82-6.67,3.86-.08,4.78-4.28,8-4.95,1.18-.25,1.66.41,1.45,1.27-.54,2.08,1,5.35-1.67,6.08A26.38,26.38,0,0,0,133.35,258.43Z"/><path class="cls-2" d="M74.82,190.21c-.9-4,.64-6.93,4.15-8.91,1,1.7.57,3.42.3,5.23-.48,3.17-1.32,6.6,3.42,8.43C74.15,195.76,73.79,195.51,74.82,190.21Z"/><path class="cls-2" d="M137.32,200.8c-.82-4.25,2-3.42,3.94-3.73,3.28-.54,3.41,1.85,3.64,4,.46,4.32-3.64,3.79-5.54,4C136.12,205.37,138,201.91,137.32,200.8Z"/><path class="cls-2" d="M129.28,160.35c5.75,4.14,5.71,4.2,1.21,8.58a64.37,64.37,0,0,0-4.38,5.2C124,168.62,125.11,163.61,129.28,160.35Z"/><path class="cls-2" d="M89.29,191.88c-5.81-1-8-5.44-5.08-9.94,1.09-1.71,2.67-.8,4-.78,2.16,0,1,1.51.86,2.44A30.68,30.68,0,0,0,89.29,191.88Z"/><path class="cls-2" d="M110,295.94c6.51-3.79,9-10.28,11.14-16.92,3.32,2.89.73,5.75-.22,8.45C118.24,295.05,116.83,296,110,295.94Z"/><path class="cls-4" d="M55,241.15l-.1,13.09c-1,.77-.69,2.39-2.05,2.86.2-11.14.42-22.29.56-33.43a30.38,30.38,0,0,0-.57-4.42c2.21,1.57,1.13,3.89,1.31,5.9C54.6,230.47,53,235.91,55,241.15Z"/><path class="cls-2" d="M13.11,141.09C11.54,147.45,8,153,6,159.23,5.13,152.72,7.84,147,9.81,141c.73-2.2,2-1.52,3.32-.88.24.22.32.42.24.63S13.2,141.09,13.11,141.09Z"/><path class="cls-2" d="M23.87,131c.93.49,1.15,1.26.39,2-3,2.71-4.9,6.66-9,8.09-1.27-1.15-.54-2.57-.53-3.89C16.83,133.78,20.27,132.3,23.87,131Z"/><path class="cls-3" d="M187.1,146.62c0-2.48,0-4.42,0-6.37,0-1.26-.42-3,1.27-3.37,1.49-.32,2.85.59,3.9,1.78s.74,2.42-.1,3.59A10.86,10.86,0,0,1,187.1,146.62Z"/><path class="cls-2" d="M107.27,222.46c-1.92-.43-5.56-1.16-5-2.43,1.35-3.11,5.35-2.14,8.24-2.9.88-.23,2.28-.39,2.07,1.12C112.15,221.13,110.11,222.28,107.27,222.46Z"/><path class="cls-2" d="M128.76,263.14c-3.22,3.49-5.12,7.73-6.8,12.09l-2.08-3c2.09-1.09,2.54-3.2,3.34-5.16,1.32-3.23,3.16-6,6.87-6.94C130.83,261.69,129,262.06,128.76,263.14Z"/><path class="cls-2" d="M133,284.18l1.18.07c0,1.2-.6,3.62,1.7,1.52a19.52,19.52,0,0,1,5.57-3.54c.11,4.19-.71,6.89-5.38,7C131.77,289.32,133.05,286.44,133,284.18Z"/><path class="cls-2" d="M128.61,174.32c1.93-3.31,3.48-6,6.71-6,1.35,0,2.59,3.18,1.88,4C135.21,174.64,132.13,174,128.61,174.32Z"/><path class="cls-4" d="M14.68,137.19c.18,1.29.35,2.59.53,3.89C17.4,146,20.1,150.29,26,151.17l-1.94,1.9c-5.57-2.24-9-6.43-11-12a2.48,2.48,0,0,1,0-.94Z"/><path class="cls-2" d="M41,274.77c-1.65,3.5-3.27,7-5,10.47-.43.88-1.11,1.71-2.23.7C33.66,280.6,36.58,277.21,41,274.77Z"/><path class="cls-4" d="M129.28,160.35c-3.41,4.05-3.46,8.88-3.17,13.78l-2.38.92c.15-5.43.82-10.75,3.06-15.77Z"/><path class="cls-2" d="M121.8,176.08l-9.3.75c2.45-1.32,1.27-6.14,5.46-5.61C119.54,172.6,121.58,173.62,121.8,176.08Z"/><path class="cls-2" d="M72.27,163.92c-2,3.35-2.1,8.13-7.07,9.17a19.86,19.86,0,0,1,4.52-8.47C70.27,164,70.91,162.23,72.27,163.92Z"/><path class="cls-4" d="M53,201.18A18,18,0,0,1,44,210l-1.17-1c3.08-2.64,7-4.49,8.26-8.84Z"/><path class="cls-4" d="M65.17,262.18c-1.49-3.84-5-3.79-8.21-4.15l-1.88-2c3.35.16,6.69.32,9.76,1.87C65.51,259.28,66.57,260.64,65.17,262.18Z"/><path class="cls-2" d="M87,274.14c-1.27,2.26-1.16,5.61-4.78,6C80.16,275.21,84.37,275.29,87,274.14Z"/><path class="cls-3" d="M149.84,197c2.24,2.93.13,4.57-1.87,6.24C147.34,200.76,144.4,197.62,149.84,197Z"/><path class="cls-4" d="M197.19,155.34c-2.4,2.41-5.32,3.45-9.67,3.69,2.95-2.82,6.07-3.24,8.59-4.72Z"/><path class="cls-4" d="M79,175.3q-2.94-4.52-5.89-9c4.08.58,4.87,4.33,6.75,7Z"/><path class="cls-4" d="M21.15,184.26c-2.52,1.7-5.37.74-8.07,1-.33-.38-.67-.75-1-1.13,2.23-1.21,4.61-1.07,7-.79Z"/><path class="cls-4" d="M171.79,114.8c.42-1.63,1.7-1.84,2.66-2.34a15.31,15.31,0,0,1,2.71-.87c.12.78.52,1.65.31,2.32-.34,1.09-1.3,1.18-2.43.93A15.91,15.91,0,0,0,171.79,114.8Z"/><path class="cls-4" d="M56.71,231c3.1-1.83,5.77-.54,8.38,1.18l-1,1L58,232Z"/><path class="cls-4" d="M58,239.31a13.62,13.62,0,0,1,6.23,2.74l-1.12,1-6.31-2.69Z"/><path class="cls-4" d="M98.05,269.14c2.06.25,4.28-.56,6.18.89l-1.18,1.09c-2.07-.13-4.28.77-6.12-.88Z"/><path class="cls-4" d="M121.8,176.08c-1.48-1.47-3.17-2.76-3.84-4.86l1.17-1.18,3.94,4.94Z"/><path class="cls-5" d="M94.64,64.67c-.67,5-1.72,9.64-6,12.77-3.58,2.65-7,1.77-9.86-1.81-5.06-6.29-3.87-13-1.72-19.8.81-2.58,2.39-4.82,5.72-4.58,3.59.26,7.38-.26,9.51,3.88C93.89,58.21,93.91,61.53,94.64,64.67Z"/><path class="cls-5" d="M122.6,50.05c2.05-.36,3.82-.18,5.18,1.37,4.81,5.44,3.15,11.57,1.55,17.5-1.43,5.29-6.2,6.71-10.81,7.56-3.61.67-5.57-2-6.38-5.08-1.92-7.27-.07-13.78,4.66-19.55C118.38,49.92,120.57,50,122.6,50.05Z"/><path class="cls-2" d="M54.17,55c-1.17-8.34,4.08-18.43,11-21.28C63.29,42.1,59.09,48.69,54.17,55Z"/></g></svg>