<svg xmlns="http://www.w3.org/2000/svg" viewBox="0 0 123.38 41.17"><defs><style>.cls-1{fill:#b71825;}.cls-2{fill:#8c032e;}</style></defs><title>matchmaker</title><g id="BACKGROUND_1" data-name="BACKGROUND 1"><path class="cls-1" d="M48.07,6V11.5a.78.78,0,0,1-.24.58.83.83,0,0,1-.58.23.79.79,0,0,1-.79-.81V6.44c0-1.12-.51-1.68-1.51-1.68a2.32,2.32,0,0,0-1.21.36,3.22,3.22,0,0,0-1,.88v5.5a.79.79,0,0,1-.81.81.85.85,0,0,1-.57-.23.78.78,0,0,1-.24-.58V6.44q0-1.68-1.53-1.68a2.15,2.15,0,0,0-1.15.36,3.34,3.34,0,0,0-1,.9V11.5a.78.78,0,0,1-.24.58.8.8,0,0,1-.56.23.82.82,0,0,1-.58-.23.78.78,0,0,1-.23-.58V4.26a.74.74,0,0,1,.23-.57.76.76,0,0,1,.56-.24.8.8,0,0,1,.58.24.75.75,0,0,1,.24.57v.5a3.47,3.47,0,0,1,1.12-1,3.39,3.39,0,0,1,1.69-.46,2.17,2.17,0,0,1,2.35,1.61,3.64,3.64,0,0,1,1.24-1.15,3.33,3.33,0,0,1,1.69-.46A2.41,2.41,0,0,1,47.44,4,2.75,2.75,0,0,1,48.07,6Z"/><path class="cls-1" d="M57.62,6.36V11.5a.79.79,0,0,1-.25.58.81.81,0,0,1-1.13,0A.78.78,0,0,1,56,11.5v-.25a3.55,3.55,0,0,1-2.84,1.19,3.13,3.13,0,0,1-2.11-.78,2.61,2.61,0,0,1-.91-2.1A2.59,2.59,0,0,1,51,7.47a3.19,3.19,0,0,1,2.13-.75A3.54,3.54,0,0,1,56,7.87V6.44a1.52,1.52,0,0,0-.58-1.26,2.38,2.38,0,0,0-1.54-.47,3.43,3.43,0,0,0-2.14.75.64.64,0,0,1-.4.13.56.56,0,0,1-.45-.2.62.62,0,0,1-.19-.46A.61.61,0,0,1,51,4.41a4.88,4.88,0,0,1,3.16-1.08,3.9,3.9,0,0,1,2.55.76A2.78,2.78,0,0,1,57.62,6.36Zm-1.62,4V8.84a2.63,2.63,0,0,0-2.23-1,2.12,2.12,0,0,0-1.44.47,1.57,1.57,0,0,0-.55,1.25,1.56,1.56,0,0,0,.55,1.25,2.12,2.12,0,0,0,1.44.48A2.61,2.61,0,0,0,56,10.32Z"/><path class="cls-1" d="M64.25,11.58a.59.59,0,0,1-.42.61,3.08,3.08,0,0,1-1.24.25,2,2,0,0,1-1.54-.56,2.21,2.21,0,0,1-.52-1.58V5H59.7a.69.69,0,0,1-.5-.21A.7.7,0,0,1,59,4.24a.64.64,0,0,1,.22-.49.69.69,0,0,1,.5-.21h.83V1.89a.79.79,0,0,1,.81-.81.8.8,0,0,1,.56.23.78.78,0,0,1,.24.58V3.54h1.14a.69.69,0,0,1,.5.21.68.68,0,0,1,.22.49.73.73,0,0,1-.21.51.69.69,0,0,1-.51.21H62.14v5a1.28,1.28,0,0,0,.22.77A.71.71,0,0,0,63,11a1.72,1.72,0,0,0,.35-.05l.22-.06a.65.65,0,0,1,.69.69Z"/><path class="cls-1" d="M69.59,3.33a4,4,0,0,1,2.76,1,.74.74,0,0,1,.05,1.06.67.67,0,0,1-.51.22.69.69,0,0,1-.49-.18,2.49,2.49,0,0,0-1.74-.67,2.56,2.56,0,0,0-2,.88,3.17,3.17,0,0,0-.79,2.23,3.24,3.24,0,0,0,.79,2.25,2.56,2.56,0,0,0,2,.88,2.48,2.48,0,0,0,1.74-.66.64.64,0,0,1,.47-.18.72.72,0,0,1,.52.2.7.7,0,0,1,.21.52.68.68,0,0,1-.25.55,4,4,0,0,1-2.76,1,4.21,4.21,0,0,1-3.19-1.3,4.56,4.56,0,0,1-1.24-3.27A4.54,4.54,0,0,1,66.4,4.62,4.23,4.23,0,0,1,69.59,3.33Z"/><path class="cls-1" d="M80.48,11.5V6.63A1.91,1.91,0,0,0,80,5.21a1.93,1.93,0,0,0-1.4-.45,2.72,2.72,0,0,0-1.34.36,3.3,3.3,0,0,0-1,.9V11.5a.78.78,0,0,1-.24.58.8.8,0,0,1-.56.23.82.82,0,0,1-.58-.23.78.78,0,0,1-.23-.58V1a.79.79,0,0,1,.81-.8A.76.76,0,0,1,76,.38a.78.78,0,0,1,.24.57V4.76a3.9,3.9,0,0,1,1.34-1,4,4,0,0,1,1.74-.4,2.45,2.45,0,0,1,2.78,2.76V11.5a.79.79,0,0,1-.81.81.8.8,0,0,1-.56-.23A.78.78,0,0,1,80.48,11.5Z"/><path class="cls-2" d="M24.81,40.43H21V27.9L14.2,39.8a1.61,1.61,0,0,1-.7.69,2,2,0,0,1-1,.24,1.9,1.9,0,0,1-.93-.24,1.56,1.56,0,0,1-.68-.69L4.13,27.9V40.43H.32V21a1.92,1.92,0,0,1,1.41-1.87,2.51,2.51,0,0,1,.61,0,2,2,0,0,1,.6.14,1.81,1.81,0,0,1,.52.3,1.83,1.83,0,0,1,.39.48l8.69,15.1L21.23,20a1.88,1.88,0,0,1,.93-.79,2,2,0,0,1,1.24-.08,2,2,0,0,1,1,.69A1.92,1.92,0,0,1,24.81,21Z"/><path class="cls-2" d="M49.89,40.43H46.08V35.27H32.66v5.16H28.85V29.91a11.07,11.07,0,0,1,.79-4.24,9.92,9.92,0,0,1,2.2-3.33,10,10,0,0,1,3.33-2.17,11.06,11.06,0,0,1,4.2-.78H48a1.93,1.93,0,0,1,.75.15,1.81,1.81,0,0,1,.62.41,2,2,0,0,1,.41.61,2.12,2.12,0,0,1,.14.75Zm-17.23-9H46.08V23.21H39.37c-.12,0-.36,0-.74.05a7.8,7.8,0,0,0-1.31.25,8.79,8.79,0,0,0-1.56.63,5.58,5.58,0,0,0-1.51,1.18,6,6,0,0,0-1.14,1.87,7.34,7.34,0,0,0-.45,2.72Z"/><path class="cls-2" d="M58.17,40.43H54.35v-21h3.82Zm18.21,0H71l-8.59-8.6H59.7V28h2.68L71,19.39h5.41L65.57,29.91Z"/><path class="cls-2" d="M97.65,40.43H83.88a6.3,6.3,0,0,1-1.73-.27,5.21,5.21,0,0,1-1.74-.92,5.13,5.13,0,0,1-1.33-1.66,5.28,5.28,0,0,1-.54-2.5V21.31a1.93,1.93,0,0,1,.15-.75,1.8,1.8,0,0,1,.4-.61,1.69,1.69,0,0,1,.61-.41,1.91,1.91,0,0,1,.76-.15H97.65v3.82H82.36V35.08a1.38,1.38,0,0,0,1.55,1.54H97.65Zm-1.72-8.6H83.88V28H95.93Z"/><path class="cls-2" d="M122.36,26.46A8,8,0,0,1,122,28.8a6.91,6.91,0,0,1-.87,1.81A6.24,6.24,0,0,1,119.9,32a7.63,7.63,0,0,1-1.51.92,7.31,7.31,0,0,1-1.58.52,7.54,7.54,0,0,1-1.51.16l8,6.88h-5.9l-8-6.88h-2.75V29.74h8.63a4.26,4.26,0,0,0,1.32-.31,3.07,3.07,0,0,0,1-.65,2.63,2.63,0,0,0,.67-1,3.43,3.43,0,0,0,.24-1.33v-2.4a1.3,1.3,0,0,0-.08-.5.63.63,0,0,0-.21-.24.52.52,0,0,0-.26-.1H105.15V40.43h-3.82V21.31a1.93,1.93,0,0,1,.15-.75,2,2,0,0,1,.4-.61,1.69,1.69,0,0,1,.61-.41,1.94,1.94,0,0,1,.76-.15h14.49A4.33,4.33,0,0,1,121.33,21a4.66,4.66,0,0,1,.79,1.51,5.26,5.26,0,0,1,.24,1.51Z"/></g></svg>