<svg xmlns="http://www.w3.org/2000/svg" viewBox="0 0 73.17 41.17"><defs><style>.cls-1{fill:#b71825;}.cls-2{fill:#8c032e;}</style></defs><title>matchlist</title><g id="BACKGROUND_1" data-name="BACKGROUND 1"><path class="cls-1" d="M22.7,6V11.5a.78.78,0,0,1-.24.58.86.86,0,0,1-.59.23.8.8,0,0,1-.56-.23.82.82,0,0,1-.23-.58V6.44c0-1.12-.5-1.68-1.51-1.68a2.26,2.26,0,0,0-1.2.36,3.14,3.14,0,0,0-1,.88v5.5a.78.78,0,0,1-.23.58.79.79,0,0,1-.57.23.81.81,0,0,1-.57-.23.78.78,0,0,1-.24-.58V6.44q0-1.68-1.53-1.68a2.21,2.21,0,0,0-1.16.36,3.18,3.18,0,0,0-1,.9V11.5a.78.78,0,0,1-.24.58.83.83,0,0,1-.57.23.79.79,0,0,1-.81-.81V4.26a.8.8,0,0,1,.79-.81.82.82,0,0,1,.59.24.75.75,0,0,1,.24.57v.5A3.6,3.6,0,0,1,15,3.33a2.19,2.19,0,0,1,2.36,1.61,3.55,3.55,0,0,1,1.24-1.15,3.33,3.33,0,0,1,1.69-.46A2.41,2.41,0,0,1,22.07,4,2.75,2.75,0,0,1,22.7,6Z"/><path class="cls-1" d="M32.24,6.36V11.5a.78.78,0,0,1-.24.58.81.81,0,0,1-1.13,0,.76.76,0,0,1-.25-.58v-.25a3.55,3.55,0,0,1-2.84,1.19,3.15,3.15,0,0,1-2.11-.78,2.65,2.65,0,0,1-.91-2.1,2.59,2.59,0,0,1,.89-2.09,3.22,3.22,0,0,1,2.13-.75,3.51,3.51,0,0,1,2.84,1.15V6.44a1.54,1.54,0,0,0-.57-1.26,2.41,2.41,0,0,0-1.55-.47,3.43,3.43,0,0,0-2.14.75.63.63,0,0,1-.39.13.59.59,0,0,1-.46-.2.62.62,0,0,1-.19-.46.61.61,0,0,1,.27-.52,4.9,4.9,0,0,1,3.16-1.08,3.94,3.94,0,0,1,2.56.76A2.77,2.77,0,0,1,32.24,6.36Zm-1.62,4V8.84a2.61,2.61,0,0,0-2.23-1A2.11,2.11,0,0,0,27,8.33a1.68,1.68,0,0,0,0,2.5,2.11,2.11,0,0,0,1.43.48A2.59,2.59,0,0,0,30.62,10.32Z"/><path class="cls-1" d="M38.87,11.58a.59.59,0,0,1-.41.61,3.12,3.12,0,0,1-1.24.25,2,2,0,0,1-1.55-.56,2.26,2.26,0,0,1-.52-1.58V5h-.82a.71.71,0,0,1-.51-.21.73.73,0,0,1-.21-.51.67.67,0,0,1,.21-.49.71.71,0,0,1,.51-.21h.82V1.89a.78.78,0,0,1,.24-.58A.78.78,0,0,1,36,1.08a.81.81,0,0,1,.57.23.78.78,0,0,1,.24.58V3.54H37.9a.73.73,0,0,1,.51.21.67.67,0,0,1,.21.49.73.73,0,0,1-.21.51A.66.66,0,0,1,37.9,5H36.77v5a1.21,1.21,0,0,0,.22.77.7.7,0,0,0,.62.29A1.81,1.81,0,0,0,38,11l.22-.06a.68.68,0,0,1,.49.19A.66.66,0,0,1,38.87,11.58Z"/><path class="cls-1" d="M44.21,3.33a4,4,0,0,1,2.77,1,.69.69,0,0,1,.25.54.7.7,0,0,1-.21.52.65.65,0,0,1-.51.22A.68.68,0,0,1,46,5.43a2.5,2.5,0,0,0-1.75-.67,2.57,2.57,0,0,0-2,.88,3.21,3.21,0,0,0-.78,2.23,3.28,3.28,0,0,0,.78,2.25,2.57,2.57,0,0,0,2,.88A2.49,2.49,0,0,0,46,10.34a.6.6,0,0,1,.46-.18.69.69,0,0,1,.52.2.67.67,0,0,1,.22.52.68.68,0,0,1-.25.55,4,4,0,0,1-2.77,1A4.2,4.2,0,0,1,41,11.14a4.51,4.51,0,0,1-1.24-3.27A4.5,4.5,0,0,1,41,4.62,4.23,4.23,0,0,1,44.21,3.33Z"/><path class="cls-1" d="M55.1,11.5V6.63a1.87,1.87,0,0,0-.46-1.42,1.9,1.9,0,0,0-1.39-.45,2.73,2.73,0,0,0-1.35.36,3.16,3.16,0,0,0-1,.9V11.5a.78.78,0,0,1-.24.58.83.83,0,0,1-.57.23.78.78,0,0,1-.57-.23.78.78,0,0,1-.24-.58V1a.78.78,0,0,1,.24-.57.74.74,0,0,1,.57-.23.8.8,0,0,1,.81.8V4.76a3.72,3.72,0,0,1,1.34-1,3.91,3.91,0,0,1,1.73-.4,2.45,2.45,0,0,1,2.79,2.76V11.5a.78.78,0,0,1-.24.58.78.78,0,0,1-.57.23.83.83,0,0,1-.57-.23A.78.78,0,0,1,55.1,11.5Z"/><path class="cls-2" d="M19.57,40.43H2.17a2,2,0,0,1-.77-.14,1.87,1.87,0,0,1-1-1,2,2,0,0,1-.15-.77V19.39H4.06V36.62H19.57Z"/><path class="cls-2" d="M26.22,40.43H22.41v-21h3.81Z"/><path class="cls-2" d="M50.91,34.24a6.68,6.68,0,0,1-.29,2,5.78,5.78,0,0,1-.76,1.6A4.92,4.92,0,0,1,48.76,39a6.55,6.55,0,0,1-1.3.79,6.39,6.39,0,0,1-1.38.46,6.16,6.16,0,0,1-1.31.14H30.05V36.62H44.77A2.25,2.25,0,0,0,46.48,36a2.39,2.39,0,0,0,.61-1.73,2.78,2.78,0,0,0-.16-1,2.24,2.24,0,0,0-.46-.76,2,2,0,0,0-.74-.5,2.49,2.49,0,0,0-1-.18H36a6.78,6.78,0,0,1-2-.33,5.8,5.8,0,0,1-3.52-3,6.39,6.39,0,0,1-.61-2.91,6.38,6.38,0,0,1,.61-2.9A6.13,6.13,0,0,1,32,20.79a5.92,5.92,0,0,1,2-1.07,6.78,6.78,0,0,1,2-.33H49v3.82H36a2.16,2.16,0,0,0-1.69.66,2.45,2.45,0,0,0-.61,1.74,2.38,2.38,0,0,0,.61,1.74A2.22,2.22,0,0,0,36,28H44.8a7,7,0,0,1,1.31.17,6.74,6.74,0,0,1,1.37.47,6.91,6.91,0,0,1,1.3.82,5.6,5.6,0,0,1,1.09,1.18,5.86,5.86,0,0,1,.76,1.59A6.94,6.94,0,0,1,50.91,34.24Z"/><path class="cls-2" d="M72.88,23.21H64.47V40.43H60.65V23.21H52.23V19.39H72.88Z"/></g></svg>