<svg xmlns="http://www.w3.org/2000/svg" viewBox="0 0 229.31 229.29"><defs><style>.cls-1{fill:#aaa7a7;}.cls-2{fill:#fff;}</style></defs><title>upload-image</title><g id="BACKGROUND_1" data-name="BACKGROUND 1"><circle class="cls-1" cx="114.65" cy="114.68" r="114.67"/><path class="cls-2" d="M52.56,106.18q-5.19,0-7.92-2.7t-2.74-8V82.63a2,2,0,0,1,2.29-2.33,2,2,0,0,1,2.29,2.33V95.44a7.36,7.36,0,0,0,1.55,5.1,5.82,5.82,0,0,0,4.53,1.7q6.06,0,6-6.8V82.63a2.28,2.28,0,1,1,4.55,0V95.48q0,5.3-2.69,8C58.68,105.28,56.05,106.18,52.56,106.18Z"/><path class="cls-2" d="M70.78,106.11a2.06,2.06,0,0,1-2.29-2.37V82.91a2.06,2.06,0,0,1,2.33-2.32h8.62a9.13,9.13,0,0,1,6.41,2.07,8.6,8.6,0,0,1,0,11.62,9.09,9.09,0,0,1-6.41,2.09H73.07v7.37C73.07,105.32,72.31,106.11,70.78,106.11Zm2.29-13.35h5.66c3.29,0,4.94-1.44,4.94-4.3S82,84.2,78.73,84.2H73.07Z"/><path class="cls-2" d="M94.15,105.82a2.07,2.07,0,0,1-2.32-2.36V82.81a2.29,2.29,0,1,1,4.58,0v19.11h10.38c1.33,0,2,.64,2,1.93a1.75,1.75,0,0,1-2,2Z"/><path class="cls-2" d="M121.89,106.18a12.37,12.37,0,0,1-6.38-1.61,11,11,0,0,1-4.25-4.53,16.46,16.46,0,0,1,0-13.73,11,11,0,0,1,4.23-4.49,13.7,13.7,0,0,1,12.81,0,11,11,0,0,1,4.22,4.49,16.36,16.36,0,0,1,0,13.73,11,11,0,0,1-4.22,4.53A12.38,12.38,0,0,1,121.89,106.18Zm0-3.94a6.55,6.55,0,0,0,5.41-2.4,10.29,10.29,0,0,0,1.93-6.65,10.34,10.34,0,0,0-1.91-6.66,7.39,7.39,0,0,0-10.83,0,10.22,10.22,0,0,0-1.93,6.66,10.29,10.29,0,0,0,1.93,6.65A6.55,6.55,0,0,0,121.89,102.24Z"/><path class="cls-2" d="M138.4,106.11a1.94,1.94,0,0,1-1.79-.86,2.08,2.08,0,0,1,0-2.08l9.45-20.94a3.43,3.43,0,0,1,1.13-1.48,2.64,2.64,0,0,1,1.52-.45,2.61,2.61,0,0,1,1.49.45,3.42,3.42,0,0,1,1.12,1.48l9.49,20.94a2.21,2.21,0,0,1,.07,2.1,1.84,1.84,0,0,1-1.72.84,2.26,2.26,0,0,1-1.56-.49,4,4,0,0,1-1-1.48L154.86,100H142.55l-1.76,4.15a4.73,4.73,0,0,1-1,1.5A2,2,0,0,1,138.4,106.11Zm10.27-20.55-4.55,10.78h9.17l-4.55-10.78Z"/><path class="cls-2" d="M167.21,105.82a2.15,2.15,0,0,1-2.44-2.43V83a2.15,2.15,0,0,1,2.44-2.43h6.94q6.34,0,9.79,3.25t3.46,9.35q0,6-3.46,9.34t-9.79,3.29Zm2.15-3.79h4.51q8.73,0,8.73-8.84t-8.73-8.81h-4.51Z"/><path class="cls-2" d="M61.87,149.06a2.06,2.06,0,0,1-2.29-2.36V125.62a2.29,2.29,0,1,1,4.58,0V146.7A2.06,2.06,0,0,1,61.87,149.06Z"/><path class="cls-2" d="M71.82,149.06c-1.39,0-2.08-.71-2.08-2.15V125.4a1.9,1.9,0,0,1,2.15-2.14,2.58,2.58,0,0,1,1.41.33,3,3,0,0,1,1,1.17L82.52,140l8.27-15.28a3.23,3.23,0,0,1,.93-1.17,2.52,2.52,0,0,1,1.4-.33,1.86,1.86,0,0,1,2.07,2.14v21.51c0,1.44-.69,2.15-2.07,2.15S91,148.35,91,146.91V131.77l-6.73,12.28a2.76,2.76,0,0,1-.75.89,1.72,1.72,0,0,1-1.07.29,1.87,1.87,0,0,1-1.11-.3,2.66,2.66,0,0,1-.76-.88l-6.73-12.2v15.06C73.89,148.35,73.2,149.06,71.82,149.06Z"/><path class="cls-2" d="M101,149.06a2,2,0,0,1-1.79-.86,2,2,0,0,1,0-2.07l9.45-20.94a3.46,3.46,0,0,1,1.12-1.49,2.63,2.63,0,0,1,1.52-.44,2.58,2.58,0,0,1,1.49.44,3.47,3.47,0,0,1,1.13,1.49l9.48,20.94a2.16,2.16,0,0,1,.07,2.09,1.82,1.82,0,0,1-1.71.84,2.31,2.31,0,0,1-1.56-.48,4.1,4.1,0,0,1-1-1.49l-1.79-4.15H105.14l-1.75,4.15a4.63,4.63,0,0,1-1,1.51A2,2,0,0,1,101,149.06Zm10.27-20.54-4.54,10.77h9.16l-4.55-10.77Z"/><path class="cls-2" d="M139,149.13a14.55,14.55,0,0,1-7.07-1.57,10.49,10.49,0,0,1-4.39-4.48,16.42,16.42,0,0,1,0-13.8,10.7,10.7,0,0,1,4.44-4.5,14.1,14.1,0,0,1,6.94-1.6,16.89,16.89,0,0,1,4,.49,12.41,12.41,0,0,1,3.81,1.62,1.77,1.77,0,0,1,.91,1.24,2.27,2.27,0,0,1-.23,1.45,2,2,0,0,1-1.07,1,1.79,1.79,0,0,1-1.58-.24,11.2,11.2,0,0,0-2.76-1.14,12.47,12.47,0,0,0-3.11-.36,7.69,7.69,0,0,0-6.07,2.33q-2.06,2.32-2.06,6.69t2.12,6.7q2.1,2.28,6.26,2.28a15.55,15.55,0,0,0,2.42-.19,16.47,16.47,0,0,0,2.45-.59v-5.87h-3.94c-1.24,0-1.86-.57-1.86-1.72s.62-1.68,1.86-1.68H146a1.64,1.64,0,0,1,1.86,1.86v8.7a2,2,0,0,1-1.29,2.11,22.81,22.81,0,0,1-3.62.95A22.06,22.06,0,0,1,139,149.13Z"/><path class="cls-2" d="M155.61,148.77a2.14,2.14,0,0,1-2.43-2.43V126a2.15,2.15,0,0,1,2.43-2.44h12.78c1.24,0,1.86.6,1.86,1.79a1.64,1.64,0,0,1-1.86,1.86H157.58v6.94h10a1.83,1.83,0,1,1,0,3.66h-10v7.33h10.81a1.83,1.83,0,1,1,0,3.65Z"/></g></svg>