<svg xmlns="http://www.w3.org/2000/svg" viewBox="0 0 229.31 229.29"><defs><style>.cls-1{fill:#13a807;}.cls-2{fill:#fff;}</style></defs><title>yes</title><g id="BACKGROUND_1" data-name="BACKGROUND 1"><circle class="cls-1" cx="114.65" cy="114.68" r="114.67"/><path class="cls-2" d="M151.37,45.83c-18.56,0-30.48,13-36.72,24.64C108.4,58.8,96.49,45.83,77.92,45.83c-23.55,0-41.61,19.27-41.61,44.83,0,27.67,22.59,46.65,56.31,75.39,6,5.09,12.33,10.51,19,16.35a4.61,4.61,0,0,0,6,0c6.68-5.84,13-11.26,19-16.35q6.33-5.38,12.11-10.35c3.84-3.33,7.49-6.53,10.92-9.66.86-.78,1.7-1.56,2.53-2.33,17.43-16.22,28.67-30.47,30.49-48a47.24,47.24,0,0,0,.27-5.09C193,65.1,174.92,45.83,151.37,45.83Z"/></g></svg>